<?xml version="1.0" standalone="no"?>
<!DOCTYPE svg PUBLIC "-//W3C//DTD SVG 20010904//EN"
 "http://www.w3.org/TR/2001/REC-SVG-20010904/DTD/svg10.dtd">
<svg version="1.0" xmlns="http://www.w3.org/2000/svg"
 width="225.000000pt" height="225.000000pt" viewBox="0 0 225.000000 225.000000"
 preserveAspectRatio="xMidYMid meet">
<metadata>
Created by potrace 1.14, written by Peter Selinger 2001-2017
</metadata>
<g transform="translate(0.000000,225.000000) scale(0.100000,-0.100000)"
fill="#000000" stroke="none">
<path d="M1040 1800 l0 -200 75 0 75 0 0 -447 0 -447 -27 -28 c-24 -25 -33
-28 -93 -28 -56 0 -70 4 -88 23 -19 20 -22 36 -24 152 l-3 130 -240 0 -240 0
-3 -210 -2 -209 142 -143 143 -143 315 0 315 0 143 143 142 142 0 533 0 532
50 0 50 0 0 200 0 200 -365 0 -365 0 0 -200z m690 0 l0 -150 -55 0 -55 0 0
-557 0 -558 -117 -117 -118 -118 -310 0 -310 0 -122 122 -123 123 0 182 0 183
195 0 195 0 0 -113 0 -114 49 -41 c48 -40 52 -42 118 -42 68 0 69 1 111 43
l42 43 0 482 0 482 -75 0 -75 0 0 150 0 150 325 0 325 0 0 -150z"/>
<path d="M1140 1800 l0 -100 70 0 70 0 0 -523 0 -523 -53 -52 -53 -52 -105 0
-105 0 -52 53 -52 53 0 102 0 102 -145 0 -145 0 0 -147 0 -148 117 -117 118
-118 270 0 270 0 118 118 117 117 0 568 0 567 50 0 50 0 0 100 0 100 -270 0
-270 0 0 -100z"/>
</g>
</svg>
